<?xml version="1.0" encoding="utf-8"?>
<!-- Generator: Adobe Illustrator 27.5.0, SVG Export Plug-In . SVG Version: 6.00 Build 0)  -->
<svg version="1.1" id="Слой_1" xmlns="http://www.w3.org/2000/svg" xmlns:xlink="http://www.w3.org/1999/xlink" x="0px" y="0px"
	 viewBox="0 0 3005.813 2000" style="enable-background:new 0 0 3005.813 2000;" xml:space="preserve">
<g>
	<rect y="0.003" style="fill:#FAFAFA;" width="3005.813" height="1999.997"/>
	<g>
		<g>
			<linearGradient id="SVGID_1_" gradientUnits="userSpaceOnUse" x1="291.0088" y1="464.1191" x2="806.8174" y2="464.1191">
				<stop  offset="0" style="stop-color:#3076A1"/>
				<stop  offset="1" style="stop-color:#639C38"/>
			</linearGradient>
			<path style="fill:url(#SVGID_1_);" d="M764.242,408.332c-5.235-20.266-13.267-39.404-23.641-56.996l24.066-36.194l-33.389-33.389
				l-33.389-33.389l-36.194,24.066c-17.593-10.374-36.73-18.405-56.997-23.641l-8.568-42.575h-47.219h-47.218l-8.569,42.575
				c-20.266,5.235-39.403,13.267-56.996,23.641l-36.194-24.066l-33.389,33.389l-33.388,33.389l24.066,36.194
				c-10.374,17.592-18.405,36.73-23.641,56.996l-42.576,8.568v47.219v47.218l42.576,8.569c5.236,20.266,13.267,39.402,23.641,56.996
				l-24.066,36.193l33.389,33.389l33.388,33.389l36.194-24.066c17.593,10.373,36.73,18.405,56.996,23.641l8.569,42.576h47.218
				h47.219l8.568-42.576c20.266-5.235,39.403-13.268,56.996-23.641l36.194,24.066l33.389-33.389l33.389-33.389l-24.066-36.193
				c10.373-17.594,18.405-36.73,23.641-56.996l42.575-8.569v-47.218V416.9L764.242,408.332z M548.913,629.574
				c-91.378,0-165.455-74.077-165.455-165.455c0-91.379,74.077-165.455,165.455-165.455c91.378,0,165.456,74.076,165.456,165.455
				C714.369,555.497,640.292,629.574,548.913,629.574z"/>
		</g>
		<g>
			
				<linearGradient id="SVGID_00000121268444048732000650000010343936210638260659_" gradientUnits="userSpaceOnUse" x1="720.7109" y1="202.2661" x2="957.1807" y2="202.2661">
				<stop  offset="0" style="stop-color:#3076A1"/>
				<stop  offset="1" style="stop-color:#639C38"/>
			</linearGradient>
			<path style="fill:url(#SVGID_00000121268444048732000650000010343936210638260659_);" d="M937.662,176.69
				c-2.4-9.29-6.082-18.063-10.838-26.13l11.033-16.593l-15.307-15.307l-15.307-15.307l-16.593,11.033
				c-8.065-4.756-16.839-8.438-26.129-10.838l-3.929-19.518h-21.647h-21.647l-3.928,19.518c-9.291,2.399-18.064,6.082-26.129,10.838
				l-16.593-11.033l-15.307,15.307l-15.307,15.307l11.033,16.593c-4.756,8.066-8.438,16.84-10.838,26.13l-19.519,3.929v21.646
				v21.648l19.519,3.929c2.4,9.29,6.082,18.064,10.838,26.129l-11.033,16.594l15.307,15.307l15.307,15.307l16.593-11.033
				c8.065,4.756,16.839,8.438,26.129,10.838l3.928,19.519h21.647h21.647l3.929-19.519c9.29-2.4,18.064-6.082,26.129-10.838
				l16.593,11.033l15.307-15.307l15.307-15.307l-11.033-16.594c4.756-8.065,8.438-16.839,10.838-26.129l19.519-3.929v-21.648
				v-21.646L937.662,176.69z M838.946,278.118c-41.892,0-75.852-33.96-75.852-75.853c0-41.892,33.96-75.851,75.852-75.851
				s75.852,33.96,75.852,75.851C914.798,244.158,880.838,278.118,838.946,278.118z"/>
		</g>
		<g>
			
				<linearGradient id="SVGID_00000009560614351751735090000017085456763143718309_" gradientUnits="userSpaceOnUse" x1="2222.875" y1="1162.1533" x2="2703.1172" y2="1162.1533">
				<stop  offset="0" style="stop-color:#FF9F55"/>
				<stop  offset="1" style="stop-color:#FFD255"/>
			</linearGradient>
			<path style="fill:url(#SVGID_00000009560614351751735090000017085456763143718309_);" d="M2663.477,1110.213
				c-4.874-18.868-12.352-36.687-22.01-53.066l22.406-33.698l-31.086-31.087l-31.086-31.086l-33.699,22.407
				c-16.379-9.658-34.197-17.136-53.066-22.011l-7.978-39.64h-43.962h-43.963l-7.979,39.64
				c-18.867,4.875-36.686,12.353-53.065,22.011l-33.698-22.407l-31.087,31.086l-31.086,31.087l22.407,33.698
				c-9.658,16.38-17.137,34.198-22.012,53.066l-39.639,7.979v43.962v43.962l39.639,7.979c4.875,18.868,12.354,36.687,22.012,53.066
				l-22.407,33.698l31.087,31.087l31.086,31.086l33.698-22.407c16.38,9.658,34.198,17.136,53.065,22.011l7.979,39.64h43.963h43.962
				l7.978-39.64c18.869-4.875,36.688-12.353,53.066-22.011l33.699,22.407l31.086-31.086l31.086-31.087l-22.406-33.698
				c9.658-16.38,17.136-34.198,22.01-53.066l39.641-7.979v-43.962v-43.962L2663.477,1110.213z M2462.996,1316.199
				c-85.078,0-154.047-68.969-154.047-154.046s68.969-154.046,154.047-154.046c85.077,0,154.046,68.969,154.046,154.046
				S2548.073,1316.199,2462.996,1316.199z"/>
		</g>
		<g>
			
				<linearGradient id="SVGID_00000132809017281517710210000015129644407749196696_" gradientUnits="userSpaceOnUse" x1="2551.3379" y1="1486.8984" x2="2771.502" y2="1486.8984">
				<stop  offset="0" style="stop-color:#FF9F55"/>
				<stop  offset="1" style="stop-color:#FFD255"/>
			</linearGradient>
			<path style="fill:url(#SVGID_00000132809017281517710210000015129644407749196696_);" d="M2753.33,1463.087
				c-2.235-8.65-5.664-16.819-10.092-24.328l10.273-15.449l-14.252-14.251l-14.251-14.252l-15.449,10.273
				c-7.509-4.428-15.678-7.856-24.327-10.092l-3.658-18.172h-20.154h-20.154l-3.658,18.172c-8.649,2.235-16.818,5.664-24.327,10.092
				l-15.448-10.273l-14.252,14.252l-14.252,14.251l10.273,15.449c-4.428,7.509-7.856,15.678-10.092,24.328l-18.172,3.657v20.154
				v20.154l18.172,3.658c2.235,8.649,5.664,16.818,10.092,24.327l-10.273,15.449l14.252,14.251l14.252,14.252l15.448-10.273
				c7.509,4.428,15.678,7.856,24.327,10.092l3.658,18.172h20.154h20.154l3.658-18.172c8.649-2.235,16.818-5.664,24.327-10.092
				l15.449,10.273l14.251-14.252l14.252-14.251l-10.273-15.449c4.428-7.509,7.856-15.678,10.092-24.327l18.172-3.658v-20.154
				v-20.154L2753.33,1463.087z M2661.42,1557.52c-39.004,0-70.621-31.617-70.621-70.621s31.617-70.621,70.621-70.621
				s70.622,31.617,70.622,70.621S2700.424,1557.52,2661.42,1557.52z"/>
		</g>
		<path style="fill:#005CA6;" d="M2339.309,1715.115H513.306c-46.275,0-83.788-37.514-83.788-83.789V615.664
			c0-46.275,37.513-83.788,83.788-83.788h1826.003c46.275,0,83.789,37.513,83.789,83.788v1015.662
			C2423.098,1677.602,2385.584,1715.115,2339.309,1715.115z"/>
		<g>
			<g>
				<g>
					<path style="fill:#FFD179;" d="M353.026,934.865l-28.763-25.074c-2.358-2.057-2.604-5.636-0.548-7.994
						c2.057-2.357,5.635-2.603,7.994-0.547l20.339,17.731l29.004-32.352c2.089-2.33,5.671-2.525,8-0.436
						c2.33,2.089,2.525,5.67,0.436,8L353.026,934.865z"/>
				</g>
			</g>
		</g>
		<polygon style="fill:#FFDC7D;" points="1666.672,458.217 1703.908,458.217 1692.511,434.578 1655.275,434.578 		"/>
		<polygon style="fill:#FFDC7D;" points="1649.249,458.217 1658.121,458.217 1646.725,434.578 1637.852,434.578 		"/>
		<polygon style="fill:#FFDC7D;" points="1520.602,430.065 1671.377,430.065 1666.373,418.245 1515.598,418.245 		"/>
		<polygon style="fill:#FFD179;" points="305.864,731.078 354.397,731.078 339.542,700.268 291.009,700.268 		"/>
		<polygon style="fill:#FFD179;" points="283.154,731.078 294.719,731.078 279.864,700.268 268.299,700.268 		"/>
		<rect x="766.845" y="880.135" style="fill:#4BA2F4;" width="245.978" height="245.979"/>
		<rect x="502.173" y="615.285" style="fill:#F0F0F0;" width="245.978" height="245.979"/>
		<rect x="1182.86" y="878.968" style="fill:#F0F0F0;" width="245.979" height="245.979"/>
		<rect x="766.845" y="1143.641" style="fill:#FFDF69;" width="245.978" height="245.979"/>
		<rect x="1182.86" y="1408.324" style="fill:#FFDF69;" width="245.979" height="245.979"/>
		<rect x="502.173" y="1144.23" style="fill:#F0F0F0;" width="245.978" height="245.979"/>
		<g>
			<path style="fill:#F0F0F0;" d="M1693.5,1408.324c0,0-0.173,113.859-26.861,210.375l-56.886,35.604h-200.567
				c38.106-101.404,38.336-245.979,38.336-245.979H1693.5z"/>
			<polygon style="fill:#C9C9C9;" points="1609.753,1654.303 1609.753,1617.875 1666.639,1617.875 			"/>
		</g>
		<g>
			<path style="fill:#FFDF69;" d="M1428.827,1143.641c0,0-0.172,113.858-26.861,210.375l-56.885,35.604h-200.567
				c38.106-101.406,38.335-245.979,38.335-245.979H1428.827z"/>
			<polygon style="fill:#DEBA35;" points="1345.081,1389.619 1345.081,1353.19 1401.966,1353.19 			"/>
		</g>
		<rect x="1447.532" y="615.463" style="fill:#F0F0F0;" width="245.979" height="245.979"/>
		<g>
			<path style="fill:#4BA2F4;" d="M1428.827,615.463c0,0-0.172,113.858-26.861,210.375l-56.885,35.604h-200.567
				c38.106-101.405,38.335-245.979,38.335-245.979H1428.827z"/>
			<polygon style="fill:#418DD4;" points="1345.081,861.441 1345.081,825.013 1401.966,825.013 			"/>
		</g>
		<g>
			<g>
				<path style="fill:#F0F0F0;" d="M748.14,1408.324c0,0-0.172,113.859-26.861,210.375l-56.886,35.604H463.826
					c38.106-101.404,38.335-245.979,38.335-245.979H748.14z"/>
				<polygon style="fill:#C9C9C9;" points="664.393,1654.303 664.393,1617.875 721.279,1617.875 				"/>
			</g>
		</g>
		<rect x="1848.144" y="880.135" style="fill:#4BA2F4;" width="245.979" height="245.979"/>
		<rect x="1848.144" y="615.285" style="fill:#F0F0F0;" width="245.979" height="245.979"/>
		<rect x="2112.816" y="615.285" style="fill:#F0F0F0;" width="245.979" height="245.979"/>
		<rect x="2112.816" y="1143.641" style="fill:#4BA2F4;" width="245.979" height="245.979"/>
		<rect x="2112.816" y="1408.324" style="fill:#F0F0F0;" width="245.979" height="245.979"/>
		<rect x="1848.144" y="1144.23" style="fill:#F0F0F0;" width="245.979" height="245.979"/>
		<g>
			<g>
				<path style="fill:#F0F0F0;" d="M2094.111,1408.324c0,0-0.172,113.859-26.861,210.375l-56.885,35.604h-200.568
					c38.106-101.404,38.336-245.979,38.336-245.979H2094.111z"/>
				<polygon style="fill:#C9C9C9;" points="2010.365,1654.303 2010.365,1617.875 2067.25,1617.875 				"/>
			</g>
		</g>
		<g>
			<path style="fill:#F0F0F0;" d="M1693.5,1143.641c0,0-0.173,113.858-26.861,210.375l-56.886,35.604h-200.567
				c38.106-101.406,38.336-245.979,38.336-245.979H1693.5z"/>
			<polygon style="fill:#C9C9C9;" points="1609.753,1389.619 1609.753,1353.19 1666.639,1353.19 			"/>
		</g>
		
			<rect x="2563.334" y="732.762" transform="matrix(-1 -1.224647e-16 1.224647e-16 -1 5289.0273 1476.9043)" style="fill:#FFD887;" width="162.359" height="11.381"/>
		
			<rect x="2563.334" y="754.211" transform="matrix(-1 -1.224647e-16 1.224647e-16 -1 5289.0273 1556.2714)" style="fill:#FFD887;" width="162.359" height="47.85"/>
		
			<rect x="1136.09" y="451.607" transform="matrix(-1 -1.224647e-16 1.224647e-16 -1 2332.2173 907.6963)" style="fill:#FFDC7D;" width="60.038" height="4.482"/>
		
			<rect x="1136.09" y="458.05" transform="matrix(-1 -1.224647e-16 1.224647e-16 -1 2332.2173 928.2373)" style="fill:#FFDC7D;" width="60.038" height="12.138"/>
		
			<rect x="2752.356" y="671.419" transform="matrix(-1 -1.224647e-16 1.224647e-16 -1 5511.8623 1476.9043)" style="fill:#FFD989;" width="7.149" height="134.066"/>
		<rect x="1084.102" y="531.876" style="fill:#FFFFFF;" width="15.471" height="1183.239"/>
		<rect x="1763.092" y="531.876" style="fill:#FFFFFF;" width="15.471" height="1183.239"/>
		
			<linearGradient id="SVGID_00000050620689172660983720000018288021226973711031_" gradientUnits="userSpaceOnUse" x1="1192.4434" y1="532.0142" x2="1645.5801" y2="532.0142">
			<stop  offset="0" style="stop-color:#FF9F55"/>
			<stop  offset="1" style="stop-color:#FFD255"/>
		</linearGradient>
		
			<rect x="1192.443" y="507.97" style="fill:url(#SVGID_00000050620689172660983720000018288021226973711031_);" width="453.137" height="48.089"/>
		<g>
			<g>
				<g>
					<g>
						<g>
							<g>
								<path style="fill:#FFDC7D;" d="M1315.163,324.911l-38.81-16.866c-3.183-1.383-4.642-5.084-3.258-8.267
									c1.383-3.182,5.084-4.64,8.266-3.258l27.444,11.927l19.817-43.92c1.428-3.164,5.148-4.57,8.311-3.144
									c3.164,1.428,4.57,5.148,3.143,8.312L1315.163,324.911z"/>
							</g>
						</g>
					</g>
				</g>
			</g>
			<g>
				<path style="fill:#FFDC7D;" d="M1359.286,361.946c-35.787,25.148-85.361,16.491-110.508-19.296
					c-25.147-35.787-16.491-85.361,19.296-110.508c35.787-25.147,85.361-16.491,110.508,19.296
					C1403.729,287.226,1395.073,336.799,1359.286,361.946z M1274.589,241.414c-30.674,21.555-38.094,64.046-16.54,94.721
					s64.046,38.095,94.721,16.54c30.675-21.555,38.095-64.047,16.54-94.722C1347.756,227.279,1305.264,219.859,1274.589,241.414z"/>
			</g>
		</g>
		<g>
			<g>
				<rect x="2015.985" y="216.851" style="fill:#FFCE55;" width="1.942" height="203.837"/>
			</g>
			<g>
				<rect x="2154.129" y="216.851" style="fill:#FFCE55;" width="1.942" height="203.837"/>
			</g>
			<g>
				<rect x="2292.271" y="216.851" style="fill:#FFCE55;" width="1.942" height="203.837"/>
			</g>
			<g>
				<rect x="2430.414" y="216.851" style="fill:#FFCE55;" width="1.942" height="203.837"/>
			</g>
			<g>
				<rect x="2568.557" y="216.851" style="fill:#FFCE55;" width="1.942" height="203.837"/>
			</g>
			<rect x="2016.957" y="432.764" style="fill:#FFCE55;" width="21.979" height="7.084"/>
			<rect x="2016.957" y="191.732" style="fill:#FFCE55;" width="33.088" height="5.314"/>
			<rect x="2016.957" y="201.555" style="fill:#FFCE55;" width="46.935" height="5.313"/>
			<rect x="2153.611" y="191.732" style="fill:#FFCE55;" width="38.846" height="5.314"/>
			<rect x="2153.611" y="201.555" style="fill:#FFCE55;" width="24.838" height="5.313"/>
			<rect x="2294.214" y="191.732" style="fill:#FFCE55;" width="24.072" height="5.314"/>
			<rect x="2294.214" y="201.555" style="fill:#FFCE55;" width="28.058" height="5.313"/>
			<rect x="2432.356" y="191.732" style="fill:#FFCE55;" width="35.063" height="5.314"/>
			<rect x="2432.356" y="201.555" style="fill:#FFCE55;" width="28.058" height="5.313"/>
			<rect x="2569.527" y="191.732" style="fill:#FFCE55;" width="20.944" height="5.314"/>
			<rect x="2569.527" y="201.555" style="fill:#FFCE55;" width="16.76" height="5.313"/>
			<rect x="2155.1" y="432.764" style="fill:#FFCE55;" width="21.979" height="7.084"/>
			<rect x="2294.214" y="432.764" style="fill:#FFCE55;" width="21.978" height="7.084"/>
			<rect x="2432.356" y="432.764" style="fill:#FFCE55;" width="21.979" height="7.084"/>
			<rect x="2570.499" y="432.764" style="fill:#FFCE55;" width="21.979" height="7.084"/>
			<g>
				<path style="fill:#FFCE55;" d="M2521.655,360.124c-43.088,0.003-80.544-18.627-119.591-38.044
					c-48.207-23.972-98.053-48.759-164.468-41.973c-42.409,4.335-69.028,21.605-92.515,36.844
					c-21.265,13.797-41.369,25.93-68.599,26.967c-44.005,1.674-59.271-17.095-59.526-18.239v-12.044l0,0l0,0
					c0.055,0.207,9.662,21.273,59.479,21.023c24.533-0.123,42.64-11.871,63.606-25.475c24.364-15.809,51.98-33.726,96.612-38.287
					c69.077-7.06,120.146,18.334,169.532,42.893c51.676,25.697,100.988,49.795,163.34,28.888v9.902
					C2551.754,358.539,2537.539,360.123,2521.655,360.124z"/>
			</g>
			<g>
				<path style="fill:#FFCE55;" d="M2263.023,357.816c-31.805,0.002-57.029-21.389-81.726-42.326
					c-18.725-15.876-38.151-32.108-60.577-40.115c-68.438-24.434-103.451,20.184-103.764,20.576v-13.572
					c0.369-0.465,6.615-8.574,24.684-16.317c16.451-7.05,44.052-12.673,82.122,0.569c24.12,8.389,44.151,25.372,63.522,41.796
					c39.297,33.317,73.234,62.091,132.174,17.021c44.64-34.135,86.721-66.664,128.125-78.549
					c40.496-11.623,82.716-3.113,122.236,36.406l-0.293,12.325c-83.947-84.317-155.427-30.898-244.444,37.173
					C2301.504,350.834,2281.188,357.815,2263.023,357.816z"/>
			</g>
		</g>
		<g>
			<g>
				<path style="fill:#FFDC7D;" d="M1718.632,267.197c-5.185,0.071-10.144-1.414-14.124-4.26c-4.516-3.228-7.246-7.814-7.693-12.92
					c-1.613-9.984-5.676-20.088-8.896-26.973c-13.184-8.707-21.167-23.268-21.387-39.063c-0.364-26.237,20.685-47.879,46.922-48.243
					c26.236-0.364,47.879,20.684,48.242,46.921c0.199,14.283-5.925,27.718-16.821,36.957c-2.673,9.934-4.005,18.927-3.962,26.738
					c0.818,10.445-8.35,19.746-20.477,20.754C1719.832,267.16,1719.23,267.189,1718.632,267.197z M1713.507,139.632
					c-24.091,0.335-43.417,20.206-43.083,44.296c0.204,14.676,7.709,28.19,20.074,36.152l0.469,0.301l0.237,0.504
					c3.371,7.134,7.749,17.885,9.466,28.586l0.019,0.147c0.33,3.978,2.491,7.583,6.083,10.151c3.691,2.64,8.432,3.87,13.341,3.46
					c10.019-0.832,17.606-8.292,16.913-16.628l-0.006-0.074v-0.074c-0.055-8.338,1.377-17.909,4.258-28.449l0.162-0.594l0.476-0.393
					c10.282-8.495,16.073-20.998,15.888-34.303C1757.469,158.624,1737.598,139.297,1713.507,139.632z"/>
			</g>
			<g>
				<polygon style="fill:#FFDC7D;" points="1708.395,251.822 1697.547,200.729 1709.117,208.67 1715.129,200.66 1721.525,207.094 
					1730.823,197.663 1729.35,249.945 1725.459,249.836 1726.653,207.439 1721.537,212.627 1715.541,206.597 1709.99,213.992 
					1703.38,209.454 1712.203,251.014 				"/>
			</g>
			<g>
				
					<rect x="1703.696" y="262.358" transform="matrix(0.9966 -0.0827 0.0827 0.9966 -16.3711 143.2903)" style="fill:#FFDC7D;" width="33.753" height="13.601"/>
			</g>
			<g>
				
					<rect x="1697.462" y="248.496" transform="matrix(0.9966 -0.0828 0.0828 0.9966 -15.5735 143.2423)" style="fill:#FFDC7D;" width="44.608" height="21.896"/>
			</g>
		</g>
		<g>
			<g>
				<path style="fill:#6A75BA;" d="M344.785,633.912c0,0-11.65-21.389-18.278-29.085c-6.627-7.696-28.648-13.469-25.655-23.304
					c2.993-9.834,32.496-5.559,40.621,4.063c8.124,9.621,32.924,13.041,33.779,17.104c0.855,4.063-8.612,26.296-13.927,29.931
					C356.011,636.255,344.785,633.912,344.785,633.912z"/>
				<path style="fill:#545D94;" d="M295.262,652.023c0,0-18.978-15.049-28.117-19.48c-9.139-4.432-31.641-0.985-32.799-11.199
					c-1.158-10.215,27.618-18.006,38.894-12.402c11.276,5.604,35.396-1.106,37.793,2.283c2.398,3.389,2.539,27.553-0.896,33
					C306.702,649.671,295.262,652.023,295.262,652.023z"/>
				<path style="fill:#EEA886;" d="M337.411,691.199c0,0,8.285-56.66,7.911-66.489c-0.107-2.806,17.05-1.764,16.248,3.635
					c-1.746,11.753,6.173,57.296,4.796,65.634C364.99,702.316,336.705,696.45,337.411,691.199z"/>
				<path style="fill:#EEA886;" d="M311.45,707.484c0,0-15.526-55.017-19.143-64.164c-1.61-4.072,14.211-10.379,16.355-3.117
					c3.366,11.396,28.418,50.135,30.465,58.334C341.176,706.735,312.887,712.583,311.45,707.484z"/>
				<path style="fill:#207CD6;" d="M322.231,745.717c0,0-16.676-56.227-19.241-62.214l26.296-16.248
					c0,0,12.186,35.917,13.897,44.897C344.894,721.131,322.231,745.717,322.231,745.717z"/>
				<path style="fill:#2E334D;" d="M787.711,597.158c0,0-25.395,6.42-37.476,25.624c-12.082,19.204-22.523,41.321-45.226,51.355
					c-22.703,10.034-22.849,35.889-21.082,39.876c1.768,3.988,71.511,82.386,86.729,85.416c15.217,3.029,43.71,0.923,40.662-19.222
					c-3.049-20.145-32.907-63.479-16.147-85.34c16.76-21.86,20.984-41.999,20.984-41.999L787.711,597.158z"/>
				<path style="fill:#EEA886;" d="M783.284,690.916c0,0-0.747-0.246-1.987-0.36c-1.44-0.135-3.548-0.094-5.938,0.712
					c-0.596,0.199-1.391,0.604-2.323,1.155c-6.035,3.556-20.315,13.208-22.244,13.438c-2.229,0.266-0.347-33.045-0.347-33.045
					s7.604-13.451,8.56-22.305C759.96,641.659,783.284,690.916,783.284,690.916z"/>
				<path style="fill:#207CD6;" d="M604.652,725.727c0,0-27.9-19.562-60.61-13.469c-32.71,6.094-36.238,21.385-47.462,22.077
					c-11.224,0.692-48.745-2.515-79.531,6.465c-30.787,8.979-56.763,9.941-60.29,7.376C353.231,745.609,376,694.3,376,687.244
					l-38.162-9.941c0,0-10.904,45.537-15.179,55.801c-4.572,10.977-13.362,31.641-0.855,49.6
					c12.507,17.959,47.462,9.865,68.628,13.484c21.165,3.619,115.9,1.299,132.444,0.412c17.959-0.962,72.155-3.527,72.155-3.527
					L604.652,725.727z"/>
				<path style="fill:#EEA886;" d="M833.799,624.335c0,0,1.78,27.563-4.34,35.828c-2.447,3.307-4.11,5.106-5.225,6.077
					c-1.569,1.365-2.787,3.089-3.486,5.049c-1.891,5.303-3.054,12.764-4.56,14.355c-1.642,1.737-6.402-2.681-8.126-2.69
					c-1.723-0.01-18.512,14.48-22.525,11.515c-4.014-2.967-28.509-27.82-26.45-44.859c2.059-17.04,9.574-42.481,37.152-42.326
					C823.817,607.44,831.69,617.481,833.799,624.335z"/>
				<path style="fill:#FFC955;" d="M750.46,755.872c-0.529,1.132-10.669,17.323-21.778,26.72c-4.611,3.902-9.387,6.632-13.713,6.632
					c-1.321,0-2.607,0.02-3.861,0.052c-12.747,0.343-22.542,2.296-39.752,3.155c-17.879,0.892-61.252-1.604-62.535-1.604
					s-13.79,2.245-13.79,2.245c-4.49-5.452,7.376-67.024,9.621-67.346c2.245-0.32,16.676,5.132,30.465,2.887
					c13.79-2.244,19.242-3.527,39.766-27.579c20.524-24.052,41.048-30.146,49.707-28.221c8.658,1.924,25.87,0,25.87,0
					S751.207,754.269,750.46,755.872z"/>
				<path style="fill:#2E334D;" d="M822.211,644.072c0,0,5.139,13.315,7.862,15.15c0,0,9.919-10.488,3.548-36.373
					c-6.371-25.885-30.397-28.319-45.91-25.691c-19.311,3.273-38.751,68.604-37.747,74.969c1.003,6.363,22.638-33.766,41.593-30.535
					C810.513,644.821,810.665,645.877,822.211,644.072z"/>
				<path style="fill:#A77860;" d="M781.297,690.556c-1.44-0.135-3.548-0.094-5.938,0.712c-0.596,0.199-1.391,0.604-2.323,1.155
					c-4.435-6.915-8.542-23.314-8.68-23.868C767.313,677.531,781.297,690.556,781.297,690.556z"/>
				<path style="fill:#C29941;" d="M728.682,782.592c-4.611,3.902-9.387,6.632-13.713,6.632c-1.321,0-2.607,0.02-3.861,0.052
					l5.25-51.041L728.682,782.592z"/>
				<path style="fill:#EEA886;" d="M828.465,870.487l-12.31,11.196c-10.62-5.688-37.233-24.842-42.353-29.203
					c-5.37-4.574-41.175-34.522-46.09-41.35c-4.961-6.826-11.242-77.371-10.604-80.604c0.636-3.186,31.13-4.824,34.589,2.64
					c0,0,1.592,40.233,2.412,46.97c0.773,6.736,3.353,12.82,7.972,18.486c6.393,7.842,20.007,26.051,33.187,40.771
					C798.41,842.904,824.401,866.987,828.465,870.487z"/>
				<path style="fill:#FFC955;" d="M754.2,734.065c0,0,1.924-53.576-15.5-52.913c-22.031,0.839-25.335,27.793-22.342,57.083
					C716.358,738.234,749.283,738.555,754.2,734.065z"/>
				<path style="fill:#EEA886;" d="M822.535,865.242c0,0,1.641,2.581,4.015,3.383c4.1,1.386,10.166-1.281,13.159,4.091
					c2.993,5.372-11.452,18.793-15.331,19.607c-3.879,0.814-10.098-5.225-14.958-17.138
					C804.56,863.271,822.535,865.242,822.535,865.242z"/>
				<path style="fill:#EEA886;" d="M838.438,871.041c0,0,7.369,5.607,14.819,12.809c6.536,6.318,13.184,14.612,11.507,16.178
					c-2.291,2.139-6.749-4.982-13.646-10.833c-6.35-5.386-5.99-3.308-5.99-3.308s-0.069-0.596,5.723,6.561
					c6.227,7.694,12.661,16.83,10.742,18.149c-1.205,0.828-1.26,1.048-3.978-1.396c1.263,1.726,0.969,2.295,0.297,2.857
					c-3.475,2.913-14.388-7.048-18.72-11.005c3.31,3.059,5.414,5.642,2.054,6.037c-3.844,0.453-18.642-14.296-24.447-19.094
					C810.465,882.763,838.438,871.041,838.438,871.041z"/>
			</g>
			<path style="fill:#E0E0E0;" d="M617.188,728.18c0,0-5.882,42.163-2.983,62.905c0,0,3.066,2.278,9.169,0.436
				c0,0,1.524-46.027,4.941-62.365C628.315,729.156,626.438,727.735,617.188,728.18z"/>
		</g>
		<g>
			<rect x="618.584" style="fill:#E0E0E0;" width="4.551" height="760.066"/>
		</g>
		<g>
			<g>
				<path style="fill:#323657;" d="M1976.834,1221.793c0,0,3.389,61.521-7.898,70.534c-5.218,4.167-17.521,5.478-30.81,5.493
					c-4.378,0.008-8.86-0.13-13.235-0.347c-0.011,0.001-0.017-0.003-0.017-0.003c-17.466-0.875-33.146-3.093-33.146-3.093
					s-45.282,2.295-43.067-25.8c0,0,5.272-8.5,12.035-10.441c6.244-1.791,34.766,3.131,39.713,3.348
					c5.451,0.238,44.104,8.828,45.761,8.214c1.657-0.615,6.1-15.764,6.372-25.924c0.393-14.673,0.334-28.183,0.334-28.183
					L1976.834,1221.793z"/>
			</g>
			<path style="fill:#252840;" d="M1736.85,1806.005c0,0-3.803,9.166-7.008,12.799s-15.479,10.126-15.546,20.915
				c-0.071,11.699,20.69,8.452,28.812,8.024c8.119-0.427,8.734-6.678,12.152-13.302c3.42-6.624,6.865-5.502,7.506-10.845
				c0.642-5.342-2.617-17.303-2.617-17.303L1736.85,1806.005z"/>
			<g>
				<path style="fill:#252840;" d="M1899.402,1808.104c0,0,11.311,11.877,22.793,14.365c11.482,2.489,19.516,5.663,19.602,12.479
					s-33.045,11.307-46.186,4.436c-19.612-10.255-21.605-7.163-23.78-12.289s2.612-18.833,2.471-20.463
					C1874.127,1804.617,1899.402,1808.104,1899.402,1808.104z"/>
			</g>
			<g>
				<path style="fill:#292C47;" d="M1898.056,1465.132c0,0,11.88,86.297,16.732,115.47c5.673,34.11,7.597,62.293,9.179,79.948
					c1.99,22.205-18.83,141.66-17.437,148.153c1.394,6.492-37.486-2.698-37.486-2.698s12.216-142.138,6.288-165.786
					c-5.519-22.02-25.43-118.81-30.466-112.797c-5.036,6.014-36.657,112.227-40.386,129.594
					c-3.73,17.366-39.693,153.332-39.693,153.332s-26.88,5.776-33.717,0.334c0,0,23.457-124.913,25.833-157.473
					c0.905-12.408,8.258-147.932,29.24-202.834C1797.232,1421.361,1898.056,1465.132,1898.056,1465.132z"/>
			</g>
			<g>
				<path style="fill:#C4B4AF;" d="M1587.738,1226.324l2.18-32.414c0.447-6.664,6.213-11.702,12.876-11.254l69.534,4.674
					c6.663,0.449,11.701,6.214,11.254,12.877l-2.18,32.414c-0.447,6.663-6.213,11.701-12.876,11.254l-69.534-4.675
					C1592.329,1238.752,1587.29,1232.986,1587.738,1226.324z"/>
				
					<rect x="1834.314" y="1000.795" transform="matrix(-0.0671 0.9977 -0.9977 -0.0671 3215.6384 -549.4152)" style="fill:#EB4747;" width="60.733" height="455.735"/>
				
					<rect x="1855.916" y="980.597" transform="matrix(0.0671 -0.9977 0.9977 0.0671 535.1238 2989.2375)" style="fill:#6880EB;" width="20.245" height="455.735"/>
				
					<rect x="1854.559" y="1000.795" transform="matrix(-0.0671 0.9977 -0.9977 -0.0671 3215.6123 -549.4351)" style="fill:#4A64E0;" width="20.244" height="455.734"/>
				
					<rect x="1853.201" y="1020.994" transform="matrix(-0.0671 0.9977 -0.9977 -0.0671 3234.3962 -526.4655)" style="fill:#4860CF;" width="20.245" height="455.734"/>
				<polygon style="fill:#EDDAD3;" points="2089.998,1274.244 2094.072,1213.65 2159.895,1242.287 2176.822,1249.649 
					2159.062,1254.68 				"/>
				<path style="fill:#DECCC6;" d="M2092.714,1233.85c-5.407-0.363-9.486-5.182-9.111-10.758c0.375-5.578,5.062-9.806,10.47-9.441
					L2092.714,1233.85z"/>
				<path style="fill:#E3D1CA;" d="M2091.355,1254.048c-5.408-0.364-9.485-5.181-9.11-10.759c0.375-5.576,5.062-9.805,10.47-9.441
					L2091.355,1254.048z"/>
				<path style="fill:#EDDAD3;" d="M2089.998,1274.246c-5.408-0.363-9.486-5.18-9.111-10.758c0.375-5.577,5.061-9.805,10.469-9.441
					L2089.998,1274.246z"/>
				
					<rect x="1626.895" y="1179.064" transform="matrix(0.0671 -0.9977 0.9977 0.0671 336.8575 2746.3916)" style="fill:#B39696;" width="20.245" height="28.004"/>
				
					<rect x="1625.537" y="1199.263" transform="matrix(-0.0671 0.9977 -0.9977 -0.0671 2955.9417 -337.2994)" style="fill:#DBB8B8;" width="20.245" height="28.005"/>
				
					<rect x="1624.18" y="1219.462" transform="matrix(-0.0671 0.9977 -0.9977 -0.0671 2974.5774 -314.4497)" style="fill:#F2CBCB;" width="20.244" height="28.004"/>
				<polygon style="fill:#DECCC6;" points="2092.715,1233.848 2176.822,1249.649 2094.072,1213.65 				"/>
				<polygon style="fill:#E3D1CA;" points="2091.355,1254.047 2176.822,1249.649 2092.715,1233.848 				"/>
				<polygon style="fill:#EDDAD3;" points="2091.355,1254.047 2176.822,1249.649 2089.998,1274.246 				"/>
				<polygon style="fill:#323438;" points="2159.062,1254.68 2159.895,1242.287 2176.822,1249.649 				"/>
			</g>
			<g>
				<g>
					<path style="fill:#EFAA88;" d="M1957.51,1201.555c0,0-2.359,10.463-0.093,13.365c2.266,2.902,3.329-0.822,3.329-0.822
						s-1.115,3.665,1.748,4.895c2.861,1.23,3.872-3.201,3.872-3.201s-0.09,3.014,3.14,3.178c3.23,0.165,3.224-3.711,3.224-3.711
						s2.253,4.348,4.872,1.338c4.423-5.084,2.664-12.789,2.664-12.789s-0.602-1.815-3.719-1.759c0,0-1.171-4.562-6.184-2.71
						c0,0-4.031-3.658-6.497,0.028C1963.866,1199.366,1959.348,1195.719,1957.51,1201.555z"/>
				</g>
			</g>
			<g>
				<path style="fill:#FFC955;" d="M1741.779,1463.703c0,0,14.75,4.479,20.926,3.346c6.184-1.134,3.055-76.923,3.298-92.693
					c0.188-12.791,7.187-46.563,7.187-46.563s0,0.019,0.01,0.057c0.01,0.009,0.01,0.027,0.01,0.037c0,0.019,0.01,0.037,0.01,0.057
					c0.693,2.529,10.139,37.576,10.467,54.414c0.346,17.477-2.277,84.326-2.277,84.326l26.035,2.534l74.823,1.834l15.608-1.841
					c0,0-1.865-28.587-2.559-42.165c-0.431-8.63-2.108-24.083-1.678-39.132c0,0-0.271-15.863,1.303-22.695
					c0.169-30.154,1.996-60.018,1.996-60.018c1.012-13.672,1.715-26.453,2.118-38.383c-3.299-1.742-7.263-3.785-10.438-5.294
					c-9.82-4.676-23.502-10.974-32.282-15.003c-5.144-2.361-10.177-4.085-10.177-4.085s-35.092-3.364-37.941-3.187
					c-0.898,0.057-5.284,1.584-11.038,3.777c-12.444,4.723-36.433,14.336-40.256,17.082c-5.604,4.011-17.448,99.328-17.981,106
					C1737.976,1378.132,1741.779,1463.703,1741.779,1463.703z"/>
			</g>
			<path style="fill:#1D2033;" d="M1895.622,1457.267c0,0-51.356,4.373-96.335,0v14.759c0,0,67.549,9.754,98.588-2.814
				L1895.622,1457.267z"/>
			<g>
				<path style="fill:#323657;" d="M1851.82,1244.58c0,0,8.354,19.627,14.623,63.491c2.408,16.849,6.871,45.21,10.113,74.155v0.01
					c2.559,22.816,8.396,46.234,10.252,63.701c1.92,18.094,7.711,71.403,7.711,71.403l14.047-8.855
					c2.006-1.855,4.816-4.264,4.002-6.868c-3.861-12.473-11.255-53.703-15.621-89.639c0-0.029-0.01-0.047-0.01-0.075
					c-0.206-1.733-0.412-3.448-0.609-5.153c-0.009-0.085-0.018-0.179-0.027-0.272c-0.825-7.187-1.509-14.075-1.996-20.381
					c-0.375-4.835-0.037-9.558,0.628-14.178c1.958-32.257,2.929-66.264,2.929-66.264c1.031-13.925,3.586-31.938,3.98-44.063
					c-4.892-0.655-8.516-1.311-12.446-2.49C1889.396,1259.102,1861.709,1248.752,1851.82,1244.58z"/>
			</g>
			<g>
				<path style="fill:#EEA987;" d="M1845.947,1242.87c0.758,3.929-20.904,15.21-34.89,2.055c0,0,2.631-23.355,1.767-29.843
					c-0.9-6.488,32.439,7.352,32.439,7.352s0,7.713,0.215,13.805c0.072,1.839,0.145,3.533,0.253,4.83
					C1845.803,1241.826,1845.875,1242.438,1845.947,1242.87z"/>
			</g>
			<path style="fill:#EEA987;" d="M1844.322,1244.765c0,0-2.688,9.438-7.084,18.062c0,0-10.203-8.939-13.414-12.125
				C1820.613,1247.518,1844.322,1244.765,1844.322,1244.765z"/>
			<path style="fill:#A09EA6;" d="M1826.563,1252.834l10.675,9.992c0,0-12.62-0.839-14.979-2.941L1826.563,1252.834z"/>
			<path style="fill:#EAE6F2;" d="M1812.402,1234.423c0,0,8.539,13.882,14.161,18.411l-9.472,15.725l-15.187-27.587
				L1812.402,1234.423z"/>
			<g>
				<path style="fill:#323657;" d="M1767.075,1375.072c-1.089,14.636,5.103,95.618-1.075,96.758
					c-6.178,1.133-28.884-3.856-28.884-3.856s-2.848-87.33-1.935-96.485c0.663-6.664,11.271-106.609,16.873-110.624
					c3.234-2.321,27.204-10.817,38.966-15.454c2.151-0.85,8.958-3.707,10.885-4.438c2.495,2.776,24.229,53.779,26.296,93.56
					c0.629,12.11-2.209,37.676-4.367,58.564c-2.303,22.284-4.854,39.678-6.723,58.313c-3.684,36.717-6.26,65.934-6.26,65.934
					l-36.542-16.27c-5.913-2.959-14.101-15.097-11.878-21.324c8.448-23.66,19.086-64.085,19.098-84.846
					c0,0-4.076-50.841-7.307-62.016C1774.223,1332.887,1768.459,1356.465,1767.075,1375.072z"/>
			</g>
			<path style="fill:#EFAA88;" d="M1737.029,1509.561c0,0-1.238-3.02-1.135-4.604c0,0,0.408-2.869,0.575-4.927
				c0.05-0.652,0.081-1.223,0.061-1.593c-0.079-1.547-0.717-4.918,0.136-8.687c0.849-3.764,5.198-16.762,5.198-16.762l11.733,1.744
				l10.197-1.383c0,0,7.599,22.184,7.213,25.783c-0.04,0.352-0.092,0.698-0.166,1.019c-0.623,3.017-2.354,4.999-2.859,6.546
				c-0.19,0.566-2.455,6.072-4.154,6.6c-2.357,0.735-4.289,0.288-5.598-0.784c0,0-4.68,1.235-7.644-0.118
				c0,0-4.28,1.279-7.487-1.455C1743.1,1510.939,1738.612,1511.75,1737.029,1509.561z"/>
			<g>
				<path style="fill:#323657;" d="M1768.037,1416.013l-0.374,64.358c0,0-12.845-0.571-30.547-7.108l-1.228-90.757
					L1768.037,1416.013z"/>
			</g>
			<rect x="1834.863" y="1458.172" style="fill:#3A4066;" width="24.207" height="17.997"/>
			<g>
				<path style="fill:#EEA886;" d="M1866.983,1175.49c0,0,8.065,14.955,4.067,17.28c-3.303,1.921,3.871,16.597,4.809,18.994
					c0.939,2.397-5.982,4.14-7.453,5.683c-1.47,1.543-5.828,20.531-11.529,21.104c-5.7,0.572-31.388-8.36-38.382-15.634
					c-6.995-7.271-12.733-40.121-8.065-53.977C1815.099,1155.086,1852.748,1149.368,1866.983,1175.49z"/>
			</g>
			<g>
				<path style="fill:#16202E;" d="M1868.593,1178.731c0,0,8.233-16.149-6.722-28.13s-42.533,9.045-45.641,9.848
					c-3.107,0.802-20.743,2.013-11.838,32.977c7.646,26.588,8.559,27.707,8.559,27.707s5.861-15.402,9.095-17.75
					c5.05-3.667,16.122-2.786,16.122-2.786s-5.275-14.007,2.969-15.99C1849.383,1182.623,1860.252,1175.635,1868.593,1178.731z"/>
			</g>
			<g>
				<path style="fill:#EEA886;" d="M1829.385,1192.576c-0.727-1.922-3.078-10.18-10.164-5.33s4.415,20.412,5.65,20.613
					S1835.504,1208.743,1829.385,1192.576z"/>
			</g>
			<path style="fill:#A77860;" d="M1845.731,1241.068c-0.145-0.036-0.325-0.072-0.468-0.108
				c-15.716-2.739-23.572-14.993-24.042-15.751c10.165,6.776,24.257,11.029,24.257,11.029
				C1845.551,1238.077,1845.623,1239.771,1845.731,1241.068z"/>
			<path style="fill:#A09EA6;" d="M1846.96,1255.635l-9.722,7.191c0,0,8.171-17.314,8.34-24.248L1846.96,1255.635z"/>
			<polygon style="fill:#EAE6F2;" points="1845.578,1238.578 1852.186,1244.728 1859.142,1265.475 1846.96,1255.635 			"/>
		</g>
		<g>
			<path style="fill:#EEA886;" d="M2206.208,1534.607c0,0-6.599,1.326-9.755,1.427c-3.155,0.1-17.752-6.519-22.422-5.889
				c-4.671,0.63-35.135,13.573-36.518,14.517s0.65,3.025,0.65,3.025l69.937,0.828L2206.208,1534.607z"/>
			
				<rect x="2113.485" y="1547.519" transform="matrix(-1 -0.0076 0.0076 -1 4331.4512 3122.1287)" style="fill:#323657;" width="116.329" height="10.655"/>
			
				<rect x="2043.328" y="1495.226" transform="matrix(-0.2925 -0.9563 0.9563 -0.2925 1281.1517 3949.0168)" style="fill:#323657;" width="116.329" height="10.654"/>
			<g>
				<path style="fill:#515269;" d="M2325.869,1772.987l4.486,9.709c0,0,18.897-7.046,18.991-7.282
					c0.094-0.235-5.203-13.482-5.203-13.482L2325.869,1772.987z"/>
			</g>
			<g>
				<path style="fill:#6A6B8A;" d="M2164.031,1772.778l-5.229,15.277c0,0,20.737,4.566,23.75,4.326
					c0.266-0.021,3.921-17.306,3.921-17.306L2164.031,1772.778z"/>
			</g>
			<path style="fill:#202338;" d="M2184.871,1787.928c0,0-14.49-3.936-14.921-4.563c-0.432-0.628-5.747-4.217-8.487-3.758
				c-2.739,0.459-2.988,3.735-5.725,4.405c-2.737,0.671-23.914,7.442-26.85,9.171c-2.934,1.729-16.943-3.364-19.641,0.263
				c-2.698,3.627-5.316,13.168,16.695,16.465c22.014,3.297,45.579,13.122,50.849,11.784
				C2182.061,1820.356,2185.677,1793.798,2184.871,1787.928z"/>
			<path style="fill:#202338;" d="M2350.834,1772.823c0,0-13.43,5.733-14.137,5.514c-0.708-0.22-6.928,0.247-8.742,2.249
				c-1.813,2.003-0.027,4.653-1.712,6.814c-1.685,2.162-11.261,14.835-14.063,17.761c-2.291,2.392-14.862,4.627-18.895,8.841
				c-3.039,3.177,0.534,15.874,21.918,9.807c20.824-5.909,46.61-16.151,49.823-20.349
				C2368.242,1799.262,2354.987,1776.816,2350.834,1772.823z"/>
			<g>
				<path style="fill:#292C47;" d="M2337.062,1582.376c0,0-59.074,26.269-71.591,35.249c-12.518,8.979-39.927,25.521-40.84,29.57
					c-0.912,4.049-6.338,0.103,3.383,20.325s55.678,68.892,59.986,74.183c4.494,5.518,36.373,38.569,36.373,38.569l23.976-18.059
					c0,0-46.101-67.788-52.771-77.756c-6.672-9.968-9.678-11.443-5.732-15.846c3.946-4.402,19.706-4.335,100.838-37.942
					c8.107-3.357,30.728-11.138,33.709-22.023c5.387-19.672,0.77-44.604-21.039-55.568
					C2381.546,1542.114,2337.062,1582.376,2337.062,1582.376z"/>
			</g>
			<g>
				<path style="fill:#EEA886;" d="M2308.969,1392.213c0.518,0.457,1.082,1.461,1.67,2.84c0.849,1.977,1.747,4.729,2.614,7.765
					c2.679,9.37,5.112,21.393,5.112,21.393s33.811-28.17,29.031-29.94c-4.78-1.77-8.314-10.002-8.314-10.002
					S2305.405,1389.051,2308.969,1392.213z"/>
			</g>
			<g>
				<path style="fill:#292C47;" d="M2337.989,1571.746c0,0-61.03,14.361-76.119,19.182c-15.09,4.82-41.056,13.311-48.033,17.292
					c-3.706,2.115-9.365,5.28-16.142,27.335c-7.683,25.002-25.222,95.313-29.203,106.264c-2.5,6.877-9.689,33.935-9.689,33.935
					l31.186,5.407c0,0,37.142-74.773,40.154-94.704c5.069-33.552,18.075-33.729,23.329-36.786c5.255-3.057,30.554,2.68,120.569-4.5
					c8.994-0.719,33.588-1.165,39.952-10.871c11.501-17.537,23.107-37.458,5.245-55.091
					C2401.377,1561.574,2337.989,1571.746,2337.989,1571.746z"/>
			</g>
			<g>
				<path style="fill:#EEA886;" d="M2297.049,1321.588c0,0-10.563,18.241-8.156,23.207c2.406,4.965-11.033,16.994-8.826,19.543
					c2.207,2.547,6.752,5.635,6.676,6.375c-0.076,0.742,3.906,24.518,9.09,25.049s40.618-1.307,43.558-12.39
					s11.581-35.364,13.618-39.874C2355.044,1338.988,2334.615,1304.166,2297.049,1321.588z"/>
			</g>
			<g>
				<path style="fill:#FCCCA2;" d="M2340.735,1318.063c2.951,2.189,5.333,4.508,7.239,6.877c2.324,1.093,16.028,7.899,13.179,15.257
					c-3.833,9.897-19.329,36.419-20.635,39.189c-0.174,0.369-0.175-0.329-0.046-1.815c-0.956-9.362-12.479-19.857-12.479-19.857
					l-6.149-2.777c3.209-5.963,1.94-11.54,1.94-11.54c-6.961-7.459-30.09-15.495-30.09-15.495
					C2296.991,1294.9,2325.233,1306.561,2340.735,1318.063z"/>
			</g>
			<g>
				<path style="fill:#EEA886;" d="M2330.269,1349.949c1.637-2.496,10.265-2.086,9.007,5.274s-11.845,13.267-14.15,9.985
					C2322.819,1361.926,2328.525,1352.609,2330.269,1349.949z"/>
			</g>
			<path style="fill:#FFC955;" d="M2347.396,1394.271c0,0,42.828,24.954,52.49,68.529c9.664,43.576,27.139,120.097,27.447,129.158
				c0,0-57.953-27.888-89.345-20.213c0,0-19.765-71.008-30.161-87.781c-10.396-16.771,5.056-56.197,5.056-56.197
				S2327.657,1404.109,2347.396,1394.271z"/>
			<path style="fill:#5E5E5B;" d="M2503.55,1413.774l-34.509,101.203c-0.263,0.77-0.422,1.571-0.472,2.382l-8.275,133.072
				l-144.284,3.214l-42.043,153.045c-1.271,4.631-0.46,9.599,2.323,13.544c1.829,2.594,4.448,4.887,8.102,5.334
				c9.147,1.119,194.384,0,194.384,0v-7.654c0-3.814-3.157-6.906-7.051-6.906h-173.169c-2.858,0-5.601-1.241-7.354-3.454
				c-1.027-1.296-1.76-2.905-1.474-4.734c0.763-4.879,37.733-129.574,37.733-129.574l139.516-2.472
				c6.352-0.113,11.515-5.053,11.777-11.271l6.062-143.183c0.038-0.91,0.187-1.813,0.442-2.688l28.201-96.753
				c0,0,2.954-6.744-2.477-7.398C2505.551,1408.828,2504.15,1412.011,2503.55,1413.774z"/>
			<path style="fill:#D6985E;" d="M2315.236,1656.458c0,0-0.107-11.047,15.035-11.818c17.389-0.886,130.486-1.669,130.486-1.669
				l-0.754,11.753L2315.236,1656.458z"/>
			<path style="fill:#D6985E;" d="M2245.385,1566.384v5.155h-245.788v-5.155c0-4.806,3.231-8.701,7.216-8.701h231.354
				C2242.152,1557.683,2245.385,1561.578,2245.385,1566.384z"/>
			<path style="fill:#807066;" d="M2087.801,1822.966h-74.273v-11.88h66.979c4.029,0,7.295,3.266,7.295,7.294V1822.966z"/>
			<rect x="2018.244" y="1571.539" style="fill:#807066;" width="9.816" height="251.427"/>
			<rect x="2037.964" y="1571.539" style="fill:#807066;" width="9.815" height="251.427"/>
			<path style="fill:#A77860;" d="M2310.639,1395.053c0.849,1.977,1.747,4.729,2.614,7.765c5.063-2.105,14.716-11.011,15.012-11.288
				C2324.236,1393.09,2310.639,1395.053,2310.639,1395.053z"/>
			<path style="fill:#DBB28A;" d="M2141.096,1571.539H1965.51v-5.155c0-4.806,4.127-8.701,9.215-8.701h138.881L2141.096,1571.539z"
				/>
			<g>
				<path style="fill:#FFC955;" d="M2328.602,1428.016c0,0-10.195,14.451-16.5,25.395c-7.148,12.408-14.174,24.656-15.724,27.41
					c-3.154,5.604-14.374,8.596-19.339,10.728c-4.566,1.96-80.627,42.668-81.594,42.581c-0.966-0.086,8.193,15.17,8.193,15.17
					s105.612-30.285,110.359-34.623c4.746-4.338,18.838-24.085,24.604-32.221c5.49-7.748,13.912-20.459,18.379-25.937
					c4.994-6.123,15.471-27.075,2.15-37.525C2342.111,1405.642,2332.699,1421.885,2328.602,1428.016z"/>
			</g>
			<path style="fill:#BD953F;" d="M2357.549,1455.787c0,0-12.213,33.129-19.561,44.424c-7.348,11.293-15.455,20.683-15.455,20.683
				l-3.909-11.431C2318.624,1509.463,2350.238,1465.98,2357.549,1455.787z"/>
		</g>
		<g>
			<g>
				<g>
					<g>
						<path style="fill:#1D2033;" d="M2549.924,1802.896c0,0-12.235,8.136-17.807,11.214c-5.572,3.077-27.752,5.049-29.837,7.252
							c-2.085,2.202-0.93,8.802,2.789,9.285s30.856,1.496,39.757-1.088c8.9-2.583,25.941,0.071,29.607-1.395
							c3.665-1.466,0.193-21.459-1.489-25.898C2571.263,1797.827,2549.924,1802.896,2549.924,1802.896z"/>
					</g>
				</g>
			</g>
			<polygon style="fill:#50558A;" points="2571.18,1796.909 2572.944,1802.267 2549.924,1802.896 2550.673,1795.54 			"/>
			<g>
				<g>
					<g>
						<path style="fill:#1D2033;" d="M2682.378,1791.736c0,0-9.38,11.311-13.832,15.859c-4.452,4.551-25.128,12.815-26.492,15.524
							s1.641,8.697,5.341,8.091c3.701-0.605,29.984-7.438,37.766-12.471c7.783-5.034,24.867-7.391,27.957-9.848
							c3.089-2.457-5.984-20.608-8.871-24.377C2701.358,1780.746,2682.378,1791.736,2682.378,1791.736z"/>
					</g>
				</g>
			</g>
			<polygon style="fill:#50558A;" points="2701.015,1779.892 2704.246,1784.516 2682.378,1791.736 2680.98,1784.476 			"/>
			<g>
				<path style="fill:#EEA886;" d="M2508.797,1333.895c0,0-20.648-10.263-22.527-9.736c-1.879,0.525-2.301,1.732-0.406,2.776
					c1.896,1.044,19.698,10.522,19.698,10.522s-26.232-7.835-27.87-7.766c-0.96,0.041-1.91,2.322-0.941,2.98
					c0.969,0.656,26.598,9.992,26.598,9.992s-24.504-7.269-25.846-6.774c-1.174,0.432-1.546,2.774,0.24,3.446
					c1.786,0.67,24.21,8.775,24.21,8.775s-18.114-4.106-18.997-2.969c-0.541,0.695-1.449,2.625,3.252,3.529
					c4.701,0.905,15.615,4.273,15.615,4.273L2508.797,1333.895z"/>
			</g>
			<g>
				<g>
					<path style="fill:#EEA886;" d="M2530.899,1349.586c0,0-6.606-3.83-6.453-8.334c0.13-3.83-2.304-8.964-3.051-10.546
						c-0.999-2.116-1.825-9.754-4.308-8.52c-2.481,1.235,0.795,12.644,1.037,15.167s-8.57-4.084-11.036-3.971
						s-11.483,15.95-4.963,19.756c6.52,3.806,15.716,3.363,16.745,4.271c1.029,0.907,4.646,2.965,4.646,2.965L2530.899,1349.586z"/>
				</g>
			</g>
			<g>
				<path style="fill:#49ACF1;" d="M2600.659,1399.709c-4.971,10.718-7.507,12.043-13.271,13.461
					c-12.47,3.068-70.636-49.893-70.636-49.893l12.695-16.656c0,0,14.213,11.065,26.326,19.219
					c7.495,5.045,22.296,17.363,23.629,16.527c1.331-0.834,21.138-28.654,22.973-32.649c1.836-4.001,9.672-34.653,14.318-38.082
					C2616.693,1311.636,2632.793,1330.422,2600.659,1399.709z"/>
			</g>
			<g>
				<path style="fill:#292C47;" d="M2614.312,1540.771c0,0,4.386,32.363,8.862,63.443v0.006c0.854,5.914,1.707,11.777,2.532,17.363
					v0.004c2.897,19.531,5.467,35.663,6.452,38.52c2.807,8.132,42.079,129.823,42.079,129.823s30.548-5.627,31.569-8.953
					c0,0-33.258-127.428-32.879-132.036c0.383-4.609-4.139-134.588-4.139-134.588S2615.854,1533.297,2614.312,1540.771z"/>
			</g>
			<g>
				<path style="fill:#292C47;" d="M2589.421,1500.466c0,0-27.573,132.176-29.877,141.905
					c-2.304,9.729-15.509,158.073-15.509,158.073s12.641,0.972,34.454,0c0,0,23.831-150.077,26.29-154.741
					c9.545-18.094,46.299-109.098,50.906-121.643c4.609-12.546,12.625-23.945,12.625-23.945S2636.455,1475.563,2589.421,1500.466z"
					/>
			</g>
			<g>
				<path style="fill:#49ACF1;" d="M2650.049,1289.295c0,0-28.721,21.16-36.69,29.609c-7.97,8.448-24.827,42.453-23.461,53.195
					c5.237,41.189,3.521,77.535,1.788,105.518c-1.332,21.496-3.385,22.752-1.971,23.025c5.475,1.064,68.709,14.205,79.206,17.533
					c0,0,2.566-64.445-0.762-74.431C2664.83,1433.76,2679.748,1329.748,2650.049,1289.295z"/>
			</g>
			<g>
				<g>
					<path style="fill:#EEA886;" d="M2650.049,1289.295c0,0-52.605,55.459-49.316,49.266c11.726-22.082,19.703-25.7,19.615-29.86
						c-0.066-3.181-1.145-12.476-1.301-15.585c-0.299-5.912-0.653-10.721-0.653-10.721s26.261-35.533,24.914-23.295
						C2641.964,1271.34,2650.049,1289.295,2650.049,1289.295z"/>
				</g>
			</g>
			<g>
				<g>
					<path style="fill:#EEA886;" d="M2602.071,1222.069c0,0-7.392,16.529-7.56,20.425c-0.17,3.896,0.765,6.904,0.08,11.386
						c-0.708,4.632-4.777,14.331-4.346,17.04c0.521,3.271,7.422,1.695,8.272,7.086c0.852,5.389,5.666,15.576,8.148,15.823
						c6.379,0.638,31.024-8.907,32.671-13.998c1.646-5.091,11.016-33.474,13.871-38.853c2.854-5.379-42.481-35.938-46.809-27.424
						C2602.071,1222.069,2602.071,1222.069,2602.071,1222.069z"/>
				</g>
			</g>
			<path style="fill:#16202E;" d="M2664.215,1235.528c3.49-14.076-12.725-16.103-12.725-16.103s-10.361-12.5-35.697-11.486
				c-25.338,1.014-22.059,34.116-22.059,34.116s17.558-2.312,25.14-0.249c0,0,0.679,14.123-0.208,17.604l9.563-0.681
				c0,0-0.848-12.539,3.748-13.051c4.596-0.511,5.654,26.614,14.085,32.736c0,0,0.118-1.912,1.222-3.77l0,0l0,0
				c1.756-2.957,4.49-7.904,6.882-13.705C2658.03,1252.817,2662.427,1242.737,2664.215,1235.528z"/>
			<g>
				<g>
					<path style="fill:#EEA886;" d="M2625.566,1248.596c0,0,3.715-9.492,12.002-3.145c6.027,4.615-0.539,20.639-6.48,20.455
						S2622.891,1256.901,2625.566,1248.596z"/>
				</g>
			</g>
			<path style="fill:#C48A6F;" d="M2640.795,1275.391c0,0-1.338,5.05-2.727,6.211c-1.389,1.16-8.136,6.34-19.355,9.646l1.048,9.944
				C2619.761,1301.192,2641.596,1293.211,2640.795,1275.391z"/>
			<path style="fill:#3D4169;" d="M2588.59,1504.45c0,0,0.539-8.892,1.684-11.411c0,0,46.688,11.85,78.943,16.645
				c0,0,0.432,5.246-0.199,11.295C2669.018,1520.979,2598.232,1508.113,2588.59,1504.45z"/>
			<g>
				<path style="fill:#EEA987;" d="M2604.807,1511.714c0,0-2.049,7.731-5.146,9.36c-3.097,1.63,13.977,18.543,13.977,18.543
					s7.317-15.27,7.152-16.825C2620.625,1521.236,2604.807,1511.714,2604.807,1511.714z"/>
			</g>
			<g>
				<path style="fill:#49ACF1;" d="M2662.041,1323.102c0,0,18.627,97.088,20.116,107.018c1.411,9.406-61.365,97.813-61.365,97.813
					l-20.133-12.431c0,0,50.964-88.915,50.964-93.012c0-4.096-22.252-82.49-22.252-82.49s-9.574-17.154,8.091-25.091
					C2655.128,1306.973,2662.041,1323.102,2662.041,1323.102z"/>
			</g>
			<path style="fill:#292C47;" d="M2592.758,1518.176c0,0-7.193,32.775-6.964,42.855s38.241-15.183,36.515-25.238L2592.758,1518.176
				z"/>
			<path style="fill:#49ACF1;" d="M2650.049,1290.388l-33.143,24.204c0,0-8.484,11.02-16.919,30.637l55.698-46.487
				L2650.049,1290.388z"/>
			<polygon style="fill:#4199D6;" points="2648.239,1284.822 2618.944,1304.106 2616.693,1315.684 2651.268,1291.029 			"/>
			<path style="fill:#292C47;" d="M2616.693,1315.684c0,0-23.602,43.867-24.286,85.622c-0.637,38.859-2.192,65.712-2.192,65.712
				l-3.74,10.496l-3.193-12.549c0,0,0.607-45.254,1.368-65.789s10.429-59.068,30.118-85.658L2616.693,1315.684z"/>
			<path style="fill:#292C47;" d="M2616.693,1315.684c0,0-1.184,1.004-2.781,1.143c-1.598,0.14-3.707-2.528,5.032-12.72
				L2616.693,1315.684z"/>
			<path style="fill:#2E6D99;" d="M2638.544,1372.67l13.079,49.82l-31.842,59.355c0,0,23.464-49.965,22.823-62.742
				C2641.963,1406.325,2638.544,1372.67,2638.544,1372.67z"/>
			<path style="fill:#1C1D30;" d="M2623.174,1604.215v0.006c0.854,5.914,1.707,11.777,2.532,17.363
				c4.632-10.66,19.687-71.038,19.951-72.102L2623.174,1604.215z"/>
		</g>
		<g>
			<g>
				<path style="fill:#EEA886;" d="M785.788,1373.227c0,0,14.886,5.982,18.207,7.871c3.321,1.887,6.615,3.664,7.903,3.353
					c1.289-0.312,13.398-9.986,17.125-12.058c3.728-2.07,31.68-23.018,29.947-23.418c-1.733-0.399-17.452-1.238-34.317,7.984
					c-16.865,9.225-28.258-0.867-34.185,0.565C784.54,1358.957,785.788,1373.227,785.788,1373.227z"/>
			</g>
			<g>
				<g>
					<path style="fill:#EEA886;" d="M1249.467,1358.06c0,0-15.112-0.386-17.911,1.153c-2.799,1.538-6.384,1.33-7.458,1.055
						c-1.073-0.276-11.082-8.51-14.173-10.285c-3.092-1.777-26.211-19.625-24.757-19.938c1.454-0.314,15.453,0.753,29.403,8.736
						c16.962,9.707,26.906,2.521,33.127,2.541C1252.798,1341.338,1249.467,1358.06,1249.467,1358.06z"/>
				</g>
				<g>
					<path style="fill:#4D5285;" d="M1386.792,1775.975c0,0,3.209,28.688,0.926,37.894s-5.258,20.023-14.096,21.128
						s-14.736-9.48-14.212-19.057c0.506-9.26,3.452-15.466,6.767-22.646c3.314-7.181,4.418-15.741,4.418-15.741L1386.792,1775.975z"
						/>
				</g>
				<g>
					<path style="fill:#4D5285;" d="M1434.667,1782.246c0,0,6.444,17.123,10.495,19.885c4.051,2.762,21.661,5.892,22.154,9.942
						c0.493,4.051-1.717,10.679-11.107,11.231c-9.39,0.552-22.831,1.473-28.354-3.499c-5.523-4.971-8.469-21.173-12.704-21.909
						c0,0-4.971,6.813-4.971,13.624c0,0-2.394,1.105-2.946-1.104c-0.552-2.209,1.306-30.563,11.976-45.293
						S1434.667,1782.246,1434.667,1782.246z"/>
				</g>
				<g>
					<path style="fill:#EEA987;" d="M1421.411,1533.137c0,0-15.797,43.083-14.665,51.645c1.132,8.561-0.026,34.504-3.616,47.484
						s-1.37,40.483-7.446,62.854s-9.072,77.737-9.072,84.918s-15.189,12.151-16.018-2.485
						c-0.829-14.638-14.361-86.443-11.599-105.775c2.762-19.333,10.495-43.636,6.628-58.273c-3.866-14.638-8.562-32.864-8.562-42.53
						S1421.411,1533.137,1421.411,1533.137z"/>
				</g>
				<g>
					<path style="fill:#EEA987;" d="M1426.388,1534.24c0,0,41.144,63.521,44.182,70.148c3.038,6.629,2.762,20.714,0,25.408
						c-2.762,4.695-31.208,44.741-35.074,59.378c-3.867,14.638-13.256,67.111-15.466,72.635s0.644,16.938,5.063,19.147
						c4.419,2.21,5.653-0.832,5.653-0.832s20.813-47.641,30.462-64.249c7.781-13.392,40.585-65.39,43.883-69.508
						c4.187-5.229,9.266-20.374,10.219-32.036c0.694-8.508-14.085-71.806-14.085-71.806S1506.209,1515.185,1426.388,1534.24z"/>
				</g>
				<g>
					<path style="fill:#292C47;" d="M1361.757,1440.342c0,0-21.266,40.873-15.19,76.5c6.076,35.627,8.838,63.797,2.762,74.016
						c0,0,45.845,1.381,87.547-15.19c41.703-16.57,70.424-25.96,70.424-25.96s-15.742-71.254-22.37-88.377
						c-6.628-17.123-11.673-36.359-12.151-44.004C1472.3,1409.683,1361.757,1440.342,1361.757,1440.342z"/>
				</g>
				<g>
					<path style="fill:#EEA987;" d="M1342.635,1306.636c0,0-34.329,25.232-38.011,26.337c-3.682,1.105-59.937,7.796-70.405,11.075
						c-9.99,3.13,3.812,13.783,3.812,13.783s61.044,1.39,67.097,0c6.433-1.478,8.39,0.394,26.065-9.364s29.458-16.018,29.458-16.018
						S1364.202,1311.648,1342.635,1306.636z"/>
				</g>
				<g>
					<path style="fill:#292C47;" d="M1490.154,1330.854c0,0,30.311,39.339,30.311,42.469c0,3.131-34.429,36.088-38.48,39.217
						l6.076,15.65c0,0,65.546-35.535,68.676-44.188c3.131-8.654-21.184-46.086-43.641-76.068
						C1490.639,1277.95,1479.543,1318.764,1490.154,1330.854z"/>
				</g>
				<g>
					<path style="fill:#292C47;" d="M1514.205,1309.418c0,1.136-3.548,0.531-4.211,1.049c-1.702,1.327-3.437,2.613-5.176,3.892
						c-3.776,2.776-7.595,5.495-11.427,8.192c-1.083,0.764-2.938,1.585-3.751,2.629c-0.922,1.184-0.244,2.162,0.131,3.877
						c1.217,5.553,1.374,3.628,1.781,9.305c0.851,11.887-5.396,29.151-11.402,38.862c-2.377,3.844-5.559,7.886-6.854,12.273
						c-1.571,5.323-1.247,11.432-1.109,16.915c0.067,2.695,0.198,5.391,0.379,8.08c0.034,0.504,0.503,2.463,0.206,2.836
						c-0.154,0.191-1.536,0.17-1.772,0.199c-4.207,0.535-8.382,1.365-12.524,2.262c-20.211,4.377-39.469,12.113-59.636,16.564
						c-11.96,2.639-24.768,4.818-37.083,3.988c3.348-5.997,5.572-12.165,7.022-17.521c2.841-10.494,5-21.258,6.656-32.002
						c1.598-10.371,2.431-21.613-1.336-31.634c-1.925-5.122-5.185-9.388-8.14-13.933c-3.152-4.846-4.5-9.547-5.756-15.091
						c-2.273-10.038-8.999-19.895-18.698-24.041c1.401-1.833,3.745-3.188,5.596-4.501c3.046-2.158,6.164-4.217,9.293-6.254
						c2.959-1.926,6.289-4.852,9.631-6.043c2.245-0.802,4.965-0.959,7.298-1.397c5.149-0.966,10.305-1.901,15.465-2.806
						c14.316-2.512,28.674-4.824,43.086-6.719c13.232-1.739,26.694-3.465,40.067-3.239c5.38,0.091,10.209,0.575,14.961,3.247
						C1498.201,1284.762,1507.4,1298.551,1514.205,1309.418z"/>
				</g>
				<g>
					<path style="fill:#464240;" d="M1424.744,1156.617c0,0,25.341-0.689,31.464,23.199c5.433,21.196,2.209,39.584,2.025,54.314
						c-0.184,14.729,15.126,38.635,15.126,38.635s-25.437-2.549-27.831-10.465c-2.394-7.918-48.607,11.414-48.607,11.414
						s15.282-9.941,1.105-37.928c-14.177-27.985-14.301-40.264-14.729-49.344C1383.02,1180.553,1389.229,1156.801,1424.744,1156.617
						z"/>
				</g>
				<g>
					<path style="fill:#EEA987;" d="M1403.919,1163.798c0,0-25.592,18.596-14.361,55.419c11.231,36.823,18.596,34.614,36.824,26.328
						c18.228-8.285,24.487-30.747,25.224-41.979C1452.342,1192.336,1452.71,1144.098,1403.919,1163.798z"/>
				</g>
				<g>
					<path style="fill:#EEA987;" d="M1480.645,1275.906c-14.079,10.19-121.898,19.918-114.836,13.461
						c6.346-5.809,37.789-19.15,46.027-23.937c3.032-1.763,4.833-4.538,5.899-7.33h0.003c1.8-4.722,1.502-9.492,1.502-9.492
						s0,0,0.002-0.003c0.188-0.455,20.757-50.161,23.563-17.995c2.425,27.8,12.113,32.796,12.113,32.796
						C1474.16,1273.716,1480.645,1275.906,1480.645,1275.906z"/>
				</g>
				<g>
					<path style="fill:#464240;" d="M1400.053,1177.791c0,0,4.925-0.645,9.068,17.444c1.806,7.885,6.49,18.78,21.312,29.688
						c16.083,11.838,18.78,12.705,18.78,12.705s20.417-74.666-22.296-78.746c-42.713-4.078-42.352,30.115-41.983,38.4
						c0.368,8.286,1.867,6.977,1.867,6.977S1387.368,1178.818,1400.053,1177.791z"/>
				</g>
				<g>
					<path style="fill:#EEA987;" d="M1481.985,1412.539c0,0-2.163,1.324-4.318,0.943c-3.721-0.654-7.235-5.152-11.792-2.369
						c-4.557,2.782,0.828,18.779,3.452,20.988c2.624,2.21,9.988,3.039,18.733-3.866
						C1496.807,1421.331,1481.985,1412.539,1481.985,1412.539z"/>
				</g>
				<g>
					<path style="fill:#EEA987;" d="M1467.67,1410.26c0,0-7.999,1.223-16.778,3.545c-7.701,2.038-16.239,5.775-16.432,7.389
						c-0.216,1.797,8.03-0.949,15.811-2.486c7.164-1.414,13.836-2.254,13.836-2.254s-7.524,1.833-15.009,4.809
						c-8.047,3.199-15.952,7.25-15.949,9.184c0.001,0.94,3.051,0.59,7.268-0.343c-3.218,1.19-5.336,2.265-5.059,2.966
						c1.436,3.629,23.031-1.568,28.037-2.746c-3.84,0.927-15.538,4.232-13.124,5.922c2.762,1.934,19.105-2.633,25.709-2.559
						C1482.583,1433.759,1467.67,1410.26,1467.67,1410.26z"/>
				</g>
				<g>
					<path style="fill:#A87860;" d="M1438.315,1236.62c0,0-2.513,12.304-20.578,21.48c1.8-4.722,1.301-9.414,1.301-9.414
						s-0.002,0.003,0,0C1419.276,1248.598,1434.736,1242.646,1438.315,1236.62z"/>
				</g>
				<g>
					<path style="fill:#292C47;" d="M1360.652,1332.449c0,0-30.297,26.01-50.815,26c-20.519-0.012-71.638,2.012-71.638,2.012
						l-7.61-17.645c0,0,68.701-8.866,73.025-10.274c4.324-1.408,37.89-26.422,37.89-26.422S1367.114,1308.039,1360.652,1332.449z"/>
				</g>
			</g>
			<g>
				<g>
					<path style="fill:#33A4FF;" d="M1248.657,1554.738c0,33.571-6.578,65.621-18.504,94.923v0.05
						c-8.05,19.73-18.503,38.233-31.069,55.117c-45.89,61.941-119.561,102.04-202.558,102.04
						c-139.292,0-252.178-112.887-252.178-252.13c0-139.293,112.887-252.18,252.178-252.18c47.462,0,91.881,13.105,129.77,35.928
						c62.578,37.646,107.488,101.746,119.269,176.791C1247.626,1528.137,1248.657,1541.339,1248.657,1554.738z"/>
				</g>
				<g>
					<path style="fill:#007FE6;" d="M1296.664,1507.184l-299.966,47.53l156.308-260.474
						C1228.38,1339.584,1282.474,1416.793,1296.664,1507.184z"/>
				</g>
				<g>
					<path style="fill:#0064B5;" d="M1257.121,1554.714c0,34.677-6.793,67.78-19.112,98.046l-241.311-98.046l257.23-40.759
						C1256.056,1527.237,1257.121,1540.874,1257.121,1554.714z"/>
				</g>
				<g>
					<path style="fill:#004E8C;" d="M1252.792,1658.766v0.054c-8.824,21.629-20.283,41.912-34.057,60.419l-222.038-164.524
						L1252.792,1658.766z"/>
				</g>
			</g>
			<g>
				<g>
					<path style="fill:#292C47;" d="M656.698,1802.731c0,0,11.334,13.052,22.999,15.929c11.665,2.877,24.697,8.4,24.672,15.79
						c-0.025,7.389-38.773,9.781-52.057,2.128c-19.823-11.423-21.907-8.104-24.038-13.693c-2.132-5.59,2.976-20.373,2.859-22.143
						C630.988,1798.556,656.698,1802.731,656.698,1802.731z"/>
				</g>
			</g>
			<g>
				<g>
					<path style="fill:#424773;" d="M655.496,1796.553c0,0,1.431,6.055,1.202,6.179c-0.228,0.124-26.43,2.839-25.565-1.989
						c0.702-3.915,1.683-8.167,1.683-8.167L655.496,1796.553z"/>
				</g>
			</g>
			<g>
				<g>
					<path style="fill:#292C47;" d="M415.055,1768.672c0,0,4.985,16.183,14.298,23.382c9.312,7.198,13.02,17.242,10.07,23.853
						c-2.95,6.61-33.011,1.5-41.704-18.646c-5.95-13.789-13.287-19.212-12.983-25.065c0.304-5.853,7.605-13.801,8.201-15.433
						C393.673,1754.747,415.055,1768.672,415.055,1768.672z"/>
				</g>
			</g>
			<g>
				<g>
					<path style="fill:#424773;" d="M417.713,1763.024c0,0-2.404,5.627-2.658,5.647c-0.254,0.021-24.535-7.756-22.118-11.909
						c1.919-3.298,5.47-6.772,5.47-6.772L417.713,1763.024z"/>
				</g>
			</g>
			<g>
				<g>
					<g>
						<path style="fill:#292C47;" d="M391.812,1486.285c0,0,7.668-16.006,13.053-16.772c5.385-0.767,0.796,3.278,0.796,3.278
							s-7.313,10.899-9.825,15.5C395.715,1488.514,391.812,1486.285,391.812,1486.285z"/>
					</g>
				</g>
			</g>
			<g>
				<g>
					<g>
						<path style="fill:#EEA886;" d="M427.021,1457.604c0,0-1.798,7.846-2.473,15.846c-0.676,7.998,0.45,11.097-2.107,14.791
							c-1.929,2.789-6.339,3.669-6.811,2.328c-0.473-1.342,3.983-13.432-0.977-15.398c-4.96-1.967-4.567,15.362-7.063,13.079
							c-2.497-2.283-11.273-13.114-8.102-18.829c3.172-5.715,9.475-8.201,12.858-17.293c3.069-8.248,6.997-10.609,6.997-10.609
							L427.021,1457.604z"/>
					</g>
				</g>
			</g>
			<g>
				<g>
					<g>
						<path style="fill:#292C47;" d="M415.346,1474.87c0,0,5.887,4.372-3.612,26.453l-6.936-4.292c0,0,5.17-12.237,5.69-19.846
							C410.489,1477.186,412.65,1472.99,415.346,1474.87z"/>
					</g>
				</g>
			</g>
			<g>
				<g>
					<g>
						<polygon style="fill:#292C47;" points="430.792,1514.99 379.55,1474.797 350.477,1546.272 394.016,1604.482 						"/>
					</g>
				</g>
			</g>
			<g>
				<g>
					<path style="fill:#292C47;" d="M616.077,1478.902c0,0,54.116,108.281,63.861,134.336c9.03,24.142-0.208,48.021-1.796,66.295
						c-1.819,20.916-17.402,110.066-16.463,116.235c0.939,6.17-32.875,1.163-32.875,1.163s13.781-142.266,4.71-163.282
						c-6.053-14.024-65.403-109.078-70.132-103.634c-4.729,5.443-57.31,87.577-64.529,103.865
						c-6.762,15.261-77.848,131.779-77.848,131.779s-18.409-2.43-30.303-14.581c0,0,65.44-128.836,71.665-151.009
						c3.168-11.281,32.062-90.174,53.12-140.943C526.616,1432.295,616.077,1478.902,616.077,1478.902z"/>
				</g>
			</g>
			<g>
				<g>
					<path style="fill:#DECBC4;" d="M408.254,1454.201c0,0,11.947,13.021,17.809,12.234c5.863-0.791,46.089-72.809,51.324-83.661
						c5.224-10.854,30.618-35.083,30.618-35.083s0.004,0.017,0.011,0.052c0.004,0.012,0.008,0.023,0.006,0.04
						c0.004,0.012,0.008,0.029,0.011,0.047c0.533,2.412,7.829,35.801,7.376,51.654c-0.461,16.451,2.365,47.064,2.365,47.064
						l5.029,0.954l83.578,15.892l7.494,1.422c0,0,4.542-5.44,4.509-18.244c-0.015-8.141-0.258-23.456,0.828-37.596
						c0.004-0.073,0.013-0.145,0.017-0.219c0.012-0.179,0.029-0.357,0.041-0.537c0.009-0.072,0.012-0.139,0.022-0.211
						c0.632-7.766-3.768-14.617-2.049-20.147c4.792-15.462,2.774-29.604,2.741-30.229l1.996-30.781
						c0.725,1.799,54.56,14.527,59.028,16.416c4.555,1.926,92.106,24.799,97.173,20.506c5.41-4.584-1.976-13.094-1.976-13.094
						l-90.879-22.633l-49.242-29.231c-0.67-0.589-10.643-5.081-16.51-8.226c-9.027-4.844-21.61-11.391-29.683-15.575
						c-4.735-2.453-7.92-4.092-7.92-4.092s-34.317-4.962-37.01-4.923c-0.849,0.011-5.04,1.248-10.551,3.045
						c-11.918,3.881-30,10.389-33.726,12.799c-5.449,3.521-44.652,79.164-48.022,84.493
						C449.29,1371.667,408.254,1454.201,408.254,1454.201z"/>
				</g>
			</g>
			<g>
				<g>
					<path style="fill:#363A5E;" d="M613.876,1464.811c0,0,2.1,2.773,2.201,14.092c0,0-91.107-15.098-100.59-19.775
						c0,0,0.22-12.458,2.284-12.575C520.04,1446.423,613.876,1464.811,613.876,1464.811z"/>
				</g>
			</g>
			<g>
				<g>
					<path style="fill:#EEA886;" d="M545.279,1262.899c-0.407,14.394,27.056,23.599,27.056,23.599s12.349-14.039,9.634-15.57
						c-1.066-0.603-1.404-2.803-1.424-5.253c-0.014-2.333,0.259-4.892,0.473-6.515c0.132-1.013,0.242-1.663,0.242-1.663
						s-3.776-4.388-8.596-9.632c-8.423-9.17-20.041-20.957-20.275-16.501c-0.013,0.235,0.007,0.52,0.062,0.85
						C554.106,1242.345,545.279,1262.899,545.279,1262.899z"/>
				</g>
			</g>
			<g>
				<g>
					<path style="fill:#5D676C;" d="M538.601,1449.764c0,0-2.607,12.516-2.938,15.794l-4.197-1.05c0,0,1.81-13.287,2.604-15.49
						L538.601,1449.764z"/>
				</g>
			</g>
			<g>
				<g>
					<path style="fill:#292C47;" d="M606.303,1462.972c0,0,1.054,11.54,0.884,15.872l-4.456-0.799c0,0-0.23-14.359-0.671-15.879
						L606.303,1462.972z"/>
				</g>
			</g>
			<g>
				<g>
					<path style="fill:#A77860;" d="M557.016,1242.348c0,0,0,0,0.002,0.002c0.051,0.086,1.147,1.91,3.041,4.543
						c4.015,5.581,11.625,14.799,20.486,18.782c-0.014-2.333,0.259-4.892,0.473-6.515c0.926,0.021,1.855-0.041,2.781-0.199
						c-2.269-4.445-5.627-9.155-5.627-9.155l-5.508-1.94L557.016,1242.348z"/>
				</g>
			</g>
			<g>
				<g>
					<path style="fill:#EEA886;" d="M552.179,1231.549c2.157,5.355,4.261,9.263,4.837,10.799c0,0,0,0,0.002,0.002
						c0.375,1,1.448,2.652,3.041,4.543c4.35,5.163,12.564,12.094,20.959,12.268c0.926,0.021,1.855-0.041,2.781-0.199
						c3.421-0.577,7.494-1.957,9.901-6.158c19.005-33.171,7.769-61.584,7.769-61.584s-46.847-15.717-54.965-1.777
						C540.807,1199.219,547.113,1218.966,552.179,1231.549z"/>
				</g>
			</g>
			<g>
				<g>
					<path style="fill:#292C47;" d="M601.469,1191.219c0,0,4.422-0.031,5.915-8.342c1.476-8.21-0.594-10.604-0.594-10.604
						s-1.257,5.544-25.274-7.795c-6.233-3.462-25.18-6.026-29.461-1.581c0,0-9.75-2.766-13.224,13.473
						c-5.512,25.763,12.058,51.882,12.058,51.882s0.656-16.972,4.505-19.04c3.85-2.068,6.822,3.434,6.822,3.434l7.587,1.738
						c0,0-10.416-25.657,3.572-25.916C587.364,1188.208,593.416,1192.29,601.469,1191.219z"/>
				</g>
			</g>
			<g>
				<g>
					<path style="fill:#EEA886;" d="M562.331,1205.871c-0.369-7.508-13.746-11.013-13.218-3.135
						c0.528,7.877,6.821,15.724,9.909,15.606C562.11,1218.226,562.612,1211.595,562.331,1205.871z"/>
				</g>
			</g>
			<g>
				<g>
					<path style="fill:#323657;" d="M477.387,1382.774c-5.826,10.548-42.44,81.173-48.303,81.965
						c-5.862,0.786-20.695-13.336-20.695-13.336s40.901-79.736,44.272-85.066c3.37-5.329,42.573-80.972,48.022-84.493
						c3.147-2.037,16.553-7.004,27.826-10.831c2.061-0.702,4.056-1.368,5.9-1.968c2.221,2.725,37.896,47.178,32.533,84.804
						c-1.61,11.306-3.932,29.755-8.012,49.103c-4.228,20.104-10.58,42.758-14.806,59.88c-7.644,30.974-22.617,60.117-22.617,60.117
						l-34.479-19.382c-5.427-3.051-7.724-9.668-5.351-15.424c9.017-21.872,27.051-66.064,28.002-85.59c0,0,0.867-44.152-1.665-54.81
						C508.016,1347.743,484.067,1370.682,477.387,1382.774z"/>
				</g>
			</g>
			<g>
				<g>
					<path style="fill:#323657;" d="M695.525,1326.735l115.864,29.971c0,0-10.088,17.144-13.604,21.905
						c-1.896,2.566-107.736-24.891-112.424-26.477c-6.027-2.039-57.925-18.541-58.646-20.338l-2.85,27.137
						c-0.493,24.506-4.497,41.184-3.941,60.25c1.072,36.744,13.436,78.406,17.288,93.34c0.643,2.494-0.203,5.134-2.177,6.788
						l-11.49,9.626c0,0-13.034-47.873-14.022-64.979c-0.955-16.52-5.385-38.807-6.759-60.384l0.001-0.011
						c-1.74-27.372-3.614-54.498-5.112-70.455c-3.913-41.539-7.987-57.934-7.987-57.934l0.227-0.164
						c2.61,1.355,5.697,2.956,8.975,4.668c6.861,3.578,25.211,10.938,32.514,14.428
						C631.38,1294.107,686.989,1324.068,695.525,1326.735z"/>
				</g>
			</g>
			<g>
				<g>
					<path style="fill:#3C4169;" d="M540.42,1305.104l13.177,8.291l-6.07,5.623l11.404,83.934
						c4.08-19.348,6.401-37.797,8.012-49.103c5.362-37.626-30.313-82.079-32.533-84.804c-1.845,0.6-3.839,1.266-5.9,1.968
						L540.42,1305.104z"/>
				</g>
			</g>
			<g>
				<g>
					<path style="fill:#3C4169;" d="M589.474,1274.799c0,0,4.265,16.771,8.178,58.311c1.498,15.957,3.373,43.083,5.112,70.455
						l6.902-77.762l-6.116-7.301l6.081-6.894l-10.766-31.929c-3.277-1.712-6.364-3.313-8.975-4.668L589.474,1274.799z"/>
				</g>
			</g>
			<g>
				<g>
					<path style="fill:#323657;" d="M528.509,1271.013c-11.272,3.827-33.043,9.598-36.19,11.635
						c-5.45,3.522-36.288,78.36-39.658,83.689L528.509,1271.013z"/>
				</g>
			</g>
			<g>
				<g>
					<polygon style="fill:#292C47;" points="394.016,1604.482 386.202,1602.849 344.375,1544.964 374.597,1473.152 379.55,1474.797 
											"/>
				</g>
			</g>
			<g>
				<g>
					<path style="fill:#AD9F99;" d="M577.657,1461.165l2.139-0.243c-1.209-10.655,1.925-45.797,4.443-74.033
						c0.815-9.141,1.585-17.773,2.086-24.284c2.007-26.066-11.145-65.174-11.278-65.565l-2.039,0.691
						c0.132,0.389,13.143,39.084,11.17,64.709c-0.5,6.498-1.27,15.125-2.084,24.258
						C579.567,1415.031,576.423,1450.293,577.657,1461.165z"/>
				</g>
			</g>
			<g>
				<g>
					<path style="fill:#5B629E;" d="M567.933,1455.122c0,0,13.403,2.259,17.808,3.585l-1.312,15.083l-17.563-2.733L567.933,1455.122
						z"/>
				</g>
			</g>
			<g>
				<g>
					<path style="fill:#FAB46C;" d="M580.336,1298.883c0,0-5.682,40.672-37.127,44.313s-74.423,23.501-87.489,35.379l-16.022,15.531
						l1.384-18.56c0,0,8.434-30.053,101.152-35.88c0,0,26.447,0.675,28.685-42.294
						C570.919,1297.373,580.646,1297.108,580.336,1298.883z"/>
				</g>
			</g>
			<g>
				<g>
					<path style="fill:#E09A55;" d="M582.63,1299.357c0,0-7.855,5.219-16.33,0.201c0,0,3.898-12.696,5.903-13.053
						C574.208,1286.15,583.712,1297.066,582.63,1299.357z"/>
				</g>
			</g>
			<g>
				<g>
					<path style="fill:#F5E2D9;" d="M533.722,1269.27l11.558-6.37c0,0,0.019,6.174,27.056,23.599l-8.969,21.866L533.722,1269.27z"/>
				</g>
			</g>
			<g>
				<g>
					<path style="fill:#F5E2D9;" d="M580.654,1267.713c0,0-0.758,6.625-8.319,18.785l14.447,20.837l2.692-32.536L580.654,1267.713z"
						/>
				</g>
			</g>
		</g>
	</g>
</g>
</svg>
